<mxfile host="app.diagrams.net" modified="2023-11-17T23:33:00.795Z" agent="Mozilla/5.0 (Macintosh; Intel Mac OS X 10_15_7) AppleWebKit/537.36 (KHTML, like Gecko) Chrome/118.0.0.0 Safari/537.36" etag="DmbiTzP6Uv3j_Qlf1Nva" version="22.1.3" type="device">
  <diagram name="Page-1" id="hnBTw2j5fhBLe4qvoYur">
    <mxGraphModel dx="1026" dy="655" grid="1" gridSize="10" guides="1" tooltips="1" connect="1" arrows="1" fold="1" page="1" pageScale="1" pageWidth="850" pageHeight="1100" math="0" shadow="0">
      <root>
        <mxCell id="0" />
        <mxCell id="1" parent="0" />
        <mxCell id="g4z2x5znXbNzCrDIlMah-8" style="edgeStyle=orthogonalEdgeStyle;rounded=0;orthogonalLoop=1;jettySize=auto;html=1;exitX=1;exitY=0.5;exitDx=0;exitDy=0;entryX=0;entryY=0.5;entryDx=0;entryDy=0;" edge="1" parent="1" source="g4z2x5znXbNzCrDIlMah-1" target="g4z2x5znXbNzCrDIlMah-6">
          <mxGeometry relative="1" as="geometry" />
        </mxCell>
        <mxCell id="g4z2x5znXbNzCrDIlMah-1" value="2-layer LSTM" style="rounded=1;whiteSpace=wrap;html=1;" vertex="1" parent="1">
          <mxGeometry x="240" y="305" width="120" height="60" as="geometry" />
        </mxCell>
        <mxCell id="g4z2x5znXbNzCrDIlMah-2" style="edgeStyle=orthogonalEdgeStyle;rounded=0;orthogonalLoop=1;jettySize=auto;html=1;" edge="1" parent="1" source="g4z2x5znXbNzCrDIlMah-1" target="g4z2x5znXbNzCrDIlMah-1">
          <mxGeometry relative="1" as="geometry">
            <Array as="points">
              <mxPoint x="340" y="290" />
            </Array>
          </mxGeometry>
        </mxCell>
        <mxCell id="g4z2x5znXbNzCrDIlMah-4" style="edgeStyle=orthogonalEdgeStyle;rounded=0;orthogonalLoop=1;jettySize=auto;html=1;exitX=1;exitY=0.5;exitDx=0;exitDy=0;" edge="1" parent="1" source="g4z2x5znXbNzCrDIlMah-3" target="g4z2x5znXbNzCrDIlMah-1">
          <mxGeometry relative="1" as="geometry" />
        </mxCell>
        <mxCell id="g4z2x5znXbNzCrDIlMah-3" value="Input sequence" style="ellipse;whiteSpace=wrap;html=1;" vertex="1" parent="1">
          <mxGeometry x="140" y="300" width="70" height="70" as="geometry" />
        </mxCell>
        <mxCell id="g4z2x5znXbNzCrDIlMah-10" style="edgeStyle=orthogonalEdgeStyle;rounded=0;orthogonalLoop=1;jettySize=auto;html=1;entryX=0;entryY=0.5;entryDx=0;entryDy=0;" edge="1" parent="1" source="g4z2x5znXbNzCrDIlMah-6" target="g4z2x5znXbNzCrDIlMah-9">
          <mxGeometry relative="1" as="geometry" />
        </mxCell>
        <mxCell id="g4z2x5znXbNzCrDIlMah-6" value="Output sequence" style="ellipse;whiteSpace=wrap;html=1;" vertex="1" parent="1">
          <mxGeometry x="390" y="300" width="70" height="70" as="geometry" />
        </mxCell>
        <mxCell id="g4z2x5znXbNzCrDIlMah-15" style="edgeStyle=orthogonalEdgeStyle;rounded=0;orthogonalLoop=1;jettySize=auto;html=1;entryX=0.5;entryY=0;entryDx=0;entryDy=0;" edge="1" parent="1" source="g4z2x5znXbNzCrDIlMah-9" target="g4z2x5znXbNzCrDIlMah-13">
          <mxGeometry relative="1" as="geometry" />
        </mxCell>
        <mxCell id="g4z2x5znXbNzCrDIlMah-9" value="FC" style="rounded=1;whiteSpace=wrap;html=1;" vertex="1" parent="1">
          <mxGeometry x="490" y="305" width="60" height="60" as="geometry" />
        </mxCell>
        <mxCell id="g4z2x5znXbNzCrDIlMah-18" style="edgeStyle=orthogonalEdgeStyle;rounded=0;orthogonalLoop=1;jettySize=auto;html=1;entryX=1;entryY=0.5;entryDx=0;entryDy=0;" edge="1" parent="1" source="g4z2x5znXbNzCrDIlMah-13" target="g4z2x5znXbNzCrDIlMah-16">
          <mxGeometry relative="1" as="geometry" />
        </mxCell>
        <mxCell id="g4z2x5znXbNzCrDIlMah-13" value="Sequence of Logits" style="ellipse;whiteSpace=wrap;html=1;" vertex="1" parent="1">
          <mxGeometry x="485" y="400" width="70" height="70" as="geometry" />
        </mxCell>
        <mxCell id="g4z2x5znXbNzCrDIlMah-20" style="edgeStyle=orthogonalEdgeStyle;rounded=0;orthogonalLoop=1;jettySize=auto;html=1;entryX=1;entryY=0.5;entryDx=0;entryDy=0;" edge="1" parent="1" source="g4z2x5znXbNzCrDIlMah-16" target="g4z2x5znXbNzCrDIlMah-19">
          <mxGeometry relative="1" as="geometry" />
        </mxCell>
        <mxCell id="g4z2x5znXbNzCrDIlMah-16" value="Softmax" style="rounded=1;whiteSpace=wrap;html=1;" vertex="1" parent="1">
          <mxGeometry x="395" y="420" width="60" height="30" as="geometry" />
        </mxCell>
        <mxCell id="g4z2x5znXbNzCrDIlMah-19" value="Categorical Cross Entropy Loss" style="ellipse;whiteSpace=wrap;html=1;" vertex="1" parent="1">
          <mxGeometry x="280" y="395" width="80" height="80" as="geometry" />
        </mxCell>
      </root>
    </mxGraphModel>
  </diagram>
</mxfile>
